<svg width="401" height="376" viewBox="0 0 401 376" fill="none" xmlns="http://www.w3.org/2000/svg">
<path fill-rule="evenodd" clip-rule="evenodd" d="M193.185 23.1895C194.946 27.8496 196.705 32.5104 198.466 37.1707C199.595 40.1572 200.723 43.143 201.851 46.1295C202.252 47.1883 202.474 48.2744 203.248 49.0095C205.072 50.7403 208.346 51.8418 210.538 53.0593C212.006 53.8752 213.475 54.6911 214.944 55.507C215.701 55.928 217.38 56.4566 217.911 57.1552C218.495 57.925 218.219 59.3389 218.219 60.4034V69.5943V86.912C210.633 85.9636 203.046 85.0157 195.46 84.0673C205.567 95.7291 215.674 107.39 225.781 119.052C228.271 121.926 231.295 124.692 233.151 128.036C237.101 135.154 240.962 142.322 244.866 149.465C248.501 156.113 252.135 162.762 255.77 169.41L223.072 168.019C214.607 167.658 205.91 168.2 197.754 165.801C191.03 163.823 184.307 161.846 177.583 159.868C176.688 159.605 173.903 159.307 173.269 158.588C172.676 157.913 172.688 155.366 172.52 154.504C169.347 138.192 165.307 120.216 156.044 106.175C149.403 96.1097 140.442 87.2972 132.236 78.52C129.032 75.0943 125.773 71.7096 122.684 68.1798C121.893 67.2758 120.749 66.2499 120.226 65.1519C119.888 64.4424 119.416 63.0905 119.626 62.4607C119.717 62.1876 121.828 61.2079 122.131 61.0133C124.271 59.6381 126.392 58.234 128.517 56.8366C134.49 52.9097 140.457 48.9731 146.464 45.0985C151.148 42.0774 155.818 38.8742 160.757 36.2781C165.877 33.5869 171.516 31.6929 176.884 29.5667C182.309 27.4177 187.743 25.2934 193.185 23.1895Z" fill="#2C2F33"/>
<path fill-rule="evenodd" clip-rule="evenodd" d="M9.07538 272.154C11.6801 274.609 16.4234 277.903 20.1728 276.405C22.056 275.653 23.6645 274.001 25.3799 272.936C27.3951 271.684 29.2897 270.432 30.9983 268.764C34.4069 265.434 36.9876 260.57 41.0135 257.964C42.3665 257.088 45.0076 256.9 45.9464 255.501C46.3669 254.873 46.4061 253.921 46.3287 253.196C46.1603 251.634 45.3166 251.726 46.7264 250.579H44.5365C44.4944 249.733 45.3387 249.663 45.968 249.772C45.6756 248.431 45.3774 243.184 47.8217 245.562C49.9404 247.623 48.8805 251.043 50.3808 253.276C51.5295 254.985 54.578 253.601 54.9893 251.72C55.1743 250.875 54.2434 249.556 54.1325 248.727C53.889 246.89 54.7094 245.302 55.9008 243.911C58.5146 245.652 57.033 249.257 58.5226 251.545C59.8704 253.615 62.8722 252.649 64.9244 252.285C67.3846 251.848 70.1662 252.29 72.5199 251.709C76.0742 250.832 74.7468 246.659 75.0984 243.966C75.4756 241.081 78.3915 237.076 77.5153 234.166C76.5743 231.04 71.0731 230.365 68.4434 229.607C62.4335 227.873 53.8611 227.54 49.3931 222.687C45.8394 226.65 42.981 231.188 39.2538 235.003C35.2279 239.124 30.9277 242.929 27.0628 247.216C23.0403 251.678 18.8881 256.053 15.0118 260.644C13.3203 262.647 11.8354 264.805 10.0858 266.76C8.53033 268.497 6.89059 270.096 9.07538 272.154ZM187.706 195.076C185.859 194.094 185.624 194.71 185.624 196.733C186.156 195.761 186.683 195.501 187.706 195.076ZM203.363 234.394V230.829C201.583 230.783 202.678 233.832 203.363 234.394ZM203.799 239.704C203.799 238.125 203.841 236.622 203.386 235.086C203.147 236.76 202.691 238.208 203.799 239.704ZM196.144 348.159C194.509 348.312 191.989 347.185 190.614 348.468C189.201 349.787 189.314 353.624 188.98 355.405C188.427 358.348 187.937 361.301 187.471 364.258C187.165 366.197 186.787 368.166 188.98 368.908C192.219 370.004 196.848 368.44 200.225 368.298C206.895 368.017 213.563 367.627 220.239 367.491C226.71 367.361 233.195 367.464 239.636 368.137C242.546 368.441 245.391 368.978 248.271 369.464C249.789 369.721 253.857 370.793 255.228 369.513C257.808 367.104 253.519 361.48 251.674 359.892C248.251 356.944 243.382 354.819 239.09 353.538C236.796 352.854 232.971 350.933 231.164 353.082C229.777 354.73 229.833 356.93 227.846 358.179C223.242 361.072 225.936 352.772 228.813 351.75C226.881 347.229 223.199 353.612 221.672 355.146C221.129 355.691 219.362 357.49 218.594 356.586C218.019 355.909 219.167 353.483 219.38 352.823C219.703 351.82 220.521 350.295 220.286 349.208C219.86 347.241 217.101 346.705 215.448 346.541C212.885 346.287 210.37 347.1 207.836 347.371C203.95 347.787 200.034 347.794 196.144 348.159ZM221.879 162.845C226.938 163.247 232.03 162.474 237.078 163.107C241.854 163.707 246.354 165.46 250.856 167.071C244.163 151.373 235.503 137.082 224.949 123.695C219.693 117.028 214.04 110.406 208.36 104.096C205.718 101.16 202.984 98.3218 200.256 95.4686C197.822 92.923 196.078 88.6001 193.157 86.6993C190.664 85.0766 186.307 86.2339 183.544 86.3346C180.421 86.4484 176.62 86.7323 173.575 85.6928C171.368 84.9395 170.761 82.9294 173.523 82.8628C176.782 82.7837 179.987 83.1234 183.288 82.8179C191.841 82.0276 200.086 80.7287 208.708 81.4655C210.683 81.6339 213.284 82.4754 215.222 82.2227C216.616 82.0401 215.699 82.7411 216.668 81.6225C217.039 81.1946 217.486 80.1887 217.596 79.6204C218.214 76.428 216.461 71.8661 216.041 68.6521C215.653 65.6776 215.997 62.4084 215.271 59.5118C214.61 56.8759 212.595 56.5243 210.113 56.2426C203.323 55.4717 196.395 55.0615 189.575 54.4806C174.01 53.1549 157.952 51.1551 142.493 54.4311C136.911 55.6139 130.105 57.4431 125.119 60.3721C123.559 61.2875 121.986 62.3657 122.553 64.2626C123.141 66.2318 126.026 68.3118 127.455 69.609C138.014 79.1948 148.212 88.9722 155.63 101.272C165.089 116.956 170.518 133.896 173.703 151.868C174.388 155.735 175.024 157.759 179.002 158.872C183.272 160.067 187.394 160.844 191.823 161.207C201.833 162.029 211.874 162.046 221.879 162.845ZM218.488 58.9765C219.255 64.6859 220.294 70.3828 220.396 76.1372C220.435 78.3106 220.641 79.3996 222.952 79.8844C225.676 80.4556 228.447 80.8812 231.184 81.474C244.394 84.337 257.355 87.8531 270.28 91.8107C282.84 95.658 295.195 99.986 308.038 102.836C313.562 104.062 320.027 104.888 325.058 107.603C330.471 110.524 329.759 115.313 330.245 120.572C330.894 127.6 332.978 134.405 333.711 141.43C334.062 144.787 334.381 148.163 334.328 151.541C334.283 154.421 333.87 157.605 335.806 160.028C339.689 154.837 341.53 148.307 342.295 141.945C342.667 138.852 342.52 135.734 342.626 132.627C342.712 130.125 342.656 126.146 344.286 124.057C347.828 119.517 352.435 137.712 352.873 139.655C353.61 142.925 354.217 146.223 354.951 149.494C355.277 150.943 355.694 156.213 357.637 156.739C361.662 157.828 360.778 146.516 360.842 144.794C360.97 141.318 361.056 137.837 360.975 134.358C360.916 131.847 360.43 129.122 360.718 126.609C361.426 120.44 364.895 126.94 365.871 129.236C368.335 135.033 369.449 141.238 371.659 147.128C372.027 148.108 372.89 151.406 374.259 151.467C375.781 151.535 375.769 148.129 375.856 147.133C376.361 141.365 378.068 135.637 377.553 129.808C377.033 123.923 374.97 117.873 372.051 112.754C365.879 101.931 354.733 95.7172 344.057 90.0567C331.839 83.5797 318.94 78.4625 305.766 74.2938C289.922 69.2802 273.653 65.2236 257.287 62.3367C248.96 60.8682 240.505 59.8179 232.093 58.9759C229.137 58.68 226.179 58.5071 223.261 57.9444C222.16 57.7316 218.186 56.7206 218.488 58.9765ZM209.977 40.4997C214.152 40.5327 218.416 38.5089 222.483 37.6726C227.325 36.6758 232.053 35.2335 236.887 34.1928C246.351 32.1554 255.821 30.1686 265.277 28.0863C269.382 27.1822 273.507 26.3953 277.596 25.4243C281.97 24.3854 286.697 23.227 291.174 24.3461C297.961 26.0428 300.828 33.468 303.32 39.2628C305.081 43.3558 306.46 47.9183 309.205 51.4799C310.183 52.7498 311.572 54.2644 313.344 53.853C316.637 53.0895 316.114 48.7324 315.695 46.3241C315.087 42.829 314.226 39.3749 313.537 35.8957C313.259 34.4915 311.108 25.3014 314.949 26.7242C317.799 27.7796 319.307 34.7311 320.386 37.214C321.187 39.0591 322.037 40.8923 322.936 42.6919C324.137 45.0923 327.562 53.1128 331.354 52.0785C336.781 50.598 331.575 36.3315 330.651 33.3246C330.143 31.6741 324.627 19.1567 329.283 20.1797C331.266 20.6161 333.197 24.2989 334.208 25.8254C336.001 28.5329 337.788 31.2599 339.476 34.0341C341.212 36.8874 342.098 40.135 343.82 42.9468C344.725 44.4266 346.574 46.3986 348.379 45.0286C351.192 42.8944 349.525 35.4707 349.032 32.6635C348.115 27.4445 345.838 22.0942 342.714 17.8276C338.02 11.4167 329.162 9.34511 321.713 8.09968C312.098 6.49181 302.35 6.93162 292.695 7.88291C281.836 8.95311 271.143 10.099 260.44 12.2872C249.653 14.4924 238.861 16.6801 228.24 19.5965C223.237 20.9705 218.162 22.1887 213.229 23.8017C207.986 25.5159 202.869 27.6493 197.479 28.8845C199.375 33.6154 201.271 38.3462 203.167 43.0776C204.981 41.2826 207.458 40.4792 209.977 40.4997ZM117.054 53.5361C115.392 52.6269 113.555 52.1979 112.949 50.1884C112.412 48.4127 113.329 46.4009 113.767 44.6963C114.992 39.9239 115.315 34.9803 114.23 30.1516C113.194 31.7338 109.314 37.8199 106.954 34.1354C105.53 31.913 109.344 28.7161 110.458 27.1538C108.015 25.6462 104.525 21.5998 101.71 24.04C99.8906 25.6178 99.1202 27.1367 96.6686 27.9036C93.6924 28.835 90.8903 28.6217 87.851 28.3645C85.7231 28.1847 85.2104 27.9008 84.3792 29.5394C83.7266 30.8275 83.3898 32.4217 83.008 33.8048C82.257 36.5318 80.5183 41.905 82.5779 44.4596C84.3815 46.6973 91.383 44.7788 92.3553 47.6674C92.8856 49.2428 90.3549 49.2991 89.3877 50.0786C88.19 51.0435 87.1995 52.5791 86.5486 53.9509C86.0667 54.9653 85.3339 56.6415 86.1543 57.6787C87.2877 59.1136 89.3888 58.0252 90.302 56.9823C91.515 55.5969 91.9087 53.7028 92.9209 52.194C94.7785 49.4254 94.8895 51.6278 95.3953 53.6158C95.9204 55.6811 97.163 55.5388 99.0661 55.804C102.405 56.2699 105.78 56.9271 109.03 57.822C110.697 58.2806 112.311 58.8649 113.898 59.5477C114.92 59.9869 116.692 61.3177 117.802 61.3302C119.857 61.3535 121.283 57.9154 122.344 56.481C120.582 55.4973 118.825 54.5045 117.054 53.5361ZM6.66074 264.062C11.795 257.899 16.2413 251.204 21.3073 244.987C26.3033 238.855 32.0833 233.494 37.6897 227.94C40.3359 225.319 42.8712 222.444 45.7922 220.121C47.9713 218.388 49.648 218.361 52.2692 219.129C59.7173 221.31 67.3004 223.936 74.3485 227.191C80.9114 230.222 86.8894 234.115 94.007 235.805C101.272 237.531 108.826 238.085 116.272 237.657C123.909 237.218 131.113 235.629 138.376 233.294C145.255 231.081 152.427 229.15 158.31 224.765C164.478 220.169 169.243 213.559 173.658 207.341C175.893 204.194 178.112 200.888 179.618 197.321C180.925 194.225 181.779 190.571 184.124 188.048C184.699 188.863 185.415 189.563 185.708 190.52C185.841 190.955 185.057 190.942 185.137 191.288C185.289 191.939 186.156 192.604 186.66 192.958C188.471 194.233 188.482 193.218 188.007 195.601C187.73 196.991 188.254 200.125 190.519 199.101C189.685 200.1 191.01 201.36 191.443 202.183C191.741 201.841 192.111 201.722 192.554 201.825C191.725 203.475 192.215 203.518 193.017 204.829C193.164 205.068 193.684 206.322 193.609 206.216C194.43 207.385 195.377 207.679 195.856 209.134C196.249 210.329 196.148 211.644 196.586 212.837C197.116 212.105 197.646 211.373 198.176 210.641C198.067 211.217 197.851 212.069 197.6 212.592C197.442 212.918 196.763 213.681 196.773 213.859C196.809 214.524 197.64 214.364 197.877 214.938C198.321 216.016 197.679 216.174 197.921 217.225C198.199 218.431 198.944 217.949 199.299 218.977C199.366 219.172 198.842 219.94 198.925 220.361C199.042 220.956 199.581 221.289 199.772 221.818C200.257 223.164 200.08 224.15 200.753 225.441C201.014 225.941 201.394 226.275 201.577 226.844C201.738 227.345 201.392 228.41 201.702 228.859C203.203 231.02 202.992 227.297 202.879 226.373C201.923 218.62 198.858 210.618 196.053 203.372C194.659 199.771 193.303 196.058 191.555 192.61C190.852 191.221 190.04 189.788 188.878 188.726C187.408 187.382 185.322 186.844 183.99 185.343C184.2 185.58 182.547 184.015 182.812 184.53C182.575 184.07 182.988 183.448 182.841 183.003C182.658 182.45 182.313 182.334 181.928 181.85C181.237 180.982 180.416 180.55 181.502 179.444C179.891 179.088 179.12 178.565 178.798 176.839C178.563 175.577 179.038 175.659 178.209 174.818C177.378 173.972 176.957 174.632 176.433 173.168C175.807 171.416 175.391 169.034 175.015 167.201C174.687 165.601 175.483 163.247 174.134 162.117C172.425 160.686 170.896 161.292 171.203 158.414C171.501 155.609 170.63 153.909 169.753 151.254C168.005 145.955 167.329 140.359 165.796 134.996C162.524 123.551 156.744 113.232 150.529 103.157C144.786 93.8482 136.757 85.917 129.004 78.2788C126.881 76.1867 124.782 74.0645 122.876 71.7711C121.234 69.7962 120.484 67.1074 118.906 65.2327C117.947 64.0942 116.162 63.6072 114.823 63.0035C112.591 61.9965 109.93 60.6827 107.41 60.8864C108.412 64.262 108.738 68.2066 105.783 70.7379C102.198 73.8085 98.9489 70.6184 95.6627 68.8677C89.6727 65.6764 81.106 68.606 75.883 63.8228C74.6387 62.6838 74.2916 60.8637 72.999 59.7997C72.05 59.0197 70.6998 58.8217 69.6313 58.2402C66.3855 56.4736 64.81 53.2397 66.0737 49.6672C67.2292 46.4014 69.0237 45.2687 65.0285 43.6136C61.7855 42.2708 60.5526 40.2476 62.0204 36.6456C63.4201 33.2114 65.9843 32.816 68.4104 30.5686C70.7601 28.3918 68.0605 25.8584 66.3001 24.2244C64.0306 22.1164 63.5965 20.2167 66.2279 18.0245C68.9839 15.7293 72.9188 15.8096 76.1311 16.9446C79.7644 18.2276 82.158 20.3606 83.6953 23.817C85.261 27.3358 89.1419 26.3538 92.2848 25.3731C95.2906 24.4355 96.0729 22.4123 98.0466 20.2337C100.242 17.8106 104.715 19.8827 107.304 20.9899C113.681 23.7152 120.018 28.0163 120.271 35.6351C120.422 40.1782 118.5 44.0397 117.501 48.304C116.588 52.2036 122.852 51.8964 123.937 55.6686C135.51 49.5421 148.399 47.6674 161.336 47.2503C175.086 46.8065 189.034 46.4509 202.666 48.6198C199.502 43.1066 197.831 37.0609 195.078 31.397C194.285 29.7664 193.944 29.9058 192.195 30.3985C188.835 31.3447 185.5 32.4035 182.148 33.3781C169.899 36.9386 157.891 41.2285 146.048 45.9269C144.897 46.3838 142.327 47.652 141.318 46.2729C140.154 44.6826 142.848 42.722 143.937 41.9221C148.706 38.4236 154.616 36.3002 159.957 33.8458C171.633 28.4811 184.563 25.9347 196.747 21.9503C223.049 13.3471 250.26 6.81327 277.593 2.49776C284.264 1.44463 291.005 1.29044 297.705 0.5087C303.639 -0.183716 309.584 -0.167785 315.518 0.54739C326.477 1.86907 339.182 4.72066 345.372 14.7524C350.959 23.8102 354.689 33.9937 353.264 44.7378C352.835 47.9649 351.469 51.7866 347.487 50.9548C344.724 50.3779 343.257 48.0309 341.975 45.7403C340.037 42.2799 338.123 38.8196 336.023 35.4519C335.244 40.5014 338.075 45.4667 337.63 50.6106C337.327 54.1011 335.399 59.616 330.867 58.6277C324.656 57.2736 322.099 47.5701 319.113 42.9149C318.961 46.5004 320.218 50.0342 319.834 53.6277C319.454 57.1774 316.681 60.5286 312.785 60.0421C309.111 59.5835 306.723 55.6469 305.162 52.6833C302.99 48.5589 301.43 44.137 299.309 39.9854C297.321 36.0937 294.966 31.4607 290.22 30.7296C285.984 30.0765 281.13 31.5882 276.946 32.2117C265.34 33.9414 253.968 36.8863 242.488 39.2656C230.18 41.8162 217.581 43.3655 205.653 47.4813C209.847 53.1902 220.823 51.9567 227.072 52.5695C236.514 53.4957 246.077 54.1927 255.466 55.5593C264.739 56.9089 273.818 59.3047 283.018 61.044C292.171 62.7742 301.307 64.5072 310.163 67.4578C326.605 72.9363 343.321 79.8696 357.808 89.4285C364.548 93.8766 370.536 98.9602 374.7 105.981C378.89 113.046 380.903 121.034 381.672 129.161C382.149 134.221 381.338 138.6 380.357 143.525C379.647 147.091 379.417 153.061 376.558 155.672C371.102 160.655 366.571 140.441 365.563 138C364.838 142.001 366.024 164.541 357.269 162.707C353.361 161.89 352.475 156.526 351.827 153.296C350.644 147.407 349.585 141.399 347.563 135.727C346.266 143.369 345.724 151.331 342.929 158.63C341.072 163.478 335.773 172.079 332.079 163.781C329.308 157.557 330.259 150.414 329.926 143.806C329.558 136.483 327.456 129.42 326.712 122.17C326.423 119.361 326.684 116.195 323.862 114.662C321.439 113.347 317.895 112.918 315.25 112.184C307.413 110.008 299.526 108.008 291.727 105.7C283.924 103.39 276.23 100.692 268.531 98.0579C261.168 95.5391 253.651 94.107 246.199 91.9501C241.962 90.7235 237.776 89.4405 233.48 88.4164C231.48 87.9402 229.457 87.5692 227.462 87.0759C225.983 86.7107 224.035 85.3321 222.515 85.3565C220.95 85.3821 220.362 86.7067 218.568 86.8108C216.636 86.9223 214.672 86.4962 212.752 86.3488C208.072 85.9898 203.098 85.4095 198.429 86.0581C201.235 89.3864 205.025 91.6873 208.346 94.4444C212.177 97.6243 215.884 101.058 219.156 104.813C225.74 112.369 231.963 120.355 237.744 128.541C243.447 136.616 248.038 145.452 252.03 154.48C254.019 158.979 255.95 163.576 257.324 168.305C257.888 170.247 258.349 172.197 259.368 173.964C260.303 175.584 261.62 176.981 260.515 178.937C259.754 178.461 259.071 177.869 258.383 177.298C259.178 182.897 260.894 188.313 261.775 193.895C262.645 199.395 262.609 205.051 262.553 210.605C262.435 222.236 261.57 233.605 259.211 245.014C256.824 256.551 253.759 268 249.893 279.129C246.172 289.845 242.438 301.082 237.244 311.182C231.697 321.969 225.098 333.31 217.068 342.442C222.313 344.59 228.988 344.188 234.542 345.054C240.348 345.958 245.37 347.666 250.318 350.878C255.323 354.129 258.041 358.314 258.733 364.242C259.224 368.46 260.685 374.301 255.15 375.41C251.169 376.207 246.719 374.897 242.73 374.574C235.752 374.008 228.765 373.655 221.771 373.35C214.796 373.046 207.82 372.778 200.843 372.561C197.561 372.46 194.278 372.408 190.997 372.291C189.527 372.238 188.635 372.215 187.317 372.64C186.275 372.977 186.351 373.675 185.19 372.812C183.318 371.419 183.704 367.03 183.756 365.1C183.836 362.122 184.118 359.109 184.699 356.187C185.044 354.45 189.229 343.257 185.974 342.786C189.755 338.632 191.265 332.699 192.963 327.492C195.091 320.969 196.959 314.463 198.425 307.754C201.557 293.421 202.942 278.932 202.942 264.267C188.423 273.216 173.062 278.064 155.961 278.604C138.96 279.142 120.282 277.746 104.138 272.09C96.6617 269.47 89.9652 266.031 83.5554 261.396C81.2579 259.736 78.7966 255.974 75.7812 256.038C72.1825 256.115 68.1526 257.477 64.579 258.06C57.7448 259.174 48.8247 259.803 43.0385 264.03C39.8956 266.326 37.6431 269.54 34.8381 272.186C32.7046 274.199 29.8831 275.292 27.7655 277.305C25.4806 279.477 26.388 282.314 22.5994 282.49C19.3609 282.639 15.8101 281.337 13.0171 279.807C7.44476 276.756 1.51056 270.243 6.66074 264.062Z" fill="white" fill-opacity="0.8"/>
<path fill-rule="evenodd" clip-rule="evenodd" d="M60.2217 118.929C52.0669 124.721 42.7133 128.678 34.1915 133.895C32.0585 135.201 25.4132 137.912 25.4775 140.334C25.515 141.75 27.512 143.526 28.3865 144.507C29.8846 146.188 31.2938 147.887 32.6764 149.666C39.0043 157.81 44.9635 166.032 51.8217 173.767C52.8543 174.931 55.9648 180.486 56.969 177.727C57.4242 176.476 57.0492 175.07 58.2355 173.904C58.846 173.303 61.2055 172.972 60.5182 171.683C60.0602 171.889 59.6016 172.096 59.143 172.301C59.4991 171.271 59.473 170.143 60.0066 169.169C60.3383 168.565 60.9864 168.278 61.2111 167.597C61.5218 166.656 60.9949 165.563 61.0831 164.593C61.1702 163.626 61.6714 162.711 61.9707 161.799C63.7453 156.389 64.3819 150.936 65.2905 145.354C66.1895 139.831 67.5897 134.481 68.1393 128.897C68.7202 122.999 69.432 117.112 70.3815 111.261C68.6866 111.499 67.3837 113.341 66.1849 114.382C64.3005 116.018 62.2546 117.485 60.2217 118.929ZM66.6145 176.033C67.0036 175.727 67.308 175.352 67.5276 174.907C63.5307 172.927 65.9425 176.305 66.6145 176.033ZM69.0451 171.81C70.7872 172.29 72.0389 172.387 73.3822 171.671C73.5096 171.603 73.3628 171.079 73.5927 170.971C73.7935 170.878 74.1002 170.993 74.272 170.906C74.8569 170.608 75.881 171.26 75.9806 170.121C73.7571 169.441 71.5706 168.185 69.2231 167.973C65.9608 167.68 66.1115 171.001 69.0451 171.81ZM76.6781 165.244C79.0552 165.8 81.0136 167.098 83.5391 166.759C85.91 166.442 87.9702 165.212 89.8403 163.796C85.1618 162.471 80.2557 162.232 75.5812 160.951C74.0592 160.534 72.0594 159.434 70.4191 159.877C68.5967 160.37 68.4818 162.077 67.9356 163.63C70.8521 164.155 73.7907 164.569 76.6781 165.244ZM91.5455 158.653C93.8292 159.199 96.1636 160.392 98.073 158.333C98.3814 158.001 98.6511 158.333 98.6147 157.309C98.5766 156.23 97.5968 155.534 96.7542 155.154C94.7731 154.261 91.9961 154.839 89.8921 154.707C86.5358 154.498 83.1198 153.801 79.8 153.264C77.5014 152.892 75.1272 152.067 72.778 152.23C70.9641 152.356 68.7759 153.902 71.4193 155.029C73.8265 156.057 77.436 155.899 80.0441 156.344C83.8993 157.002 87.7409 157.744 91.5455 158.653ZM93.7763 147.909C93.6284 148.06 93.4805 148.211 93.3325 148.362C93.357 148.356 92.4569 147.627 92.2185 147.606C91.0607 147.505 89.8961 147.585 88.7365 147.52C86.0647 147.369 83.3719 146.903 80.7479 146.391C78.6103 145.973 76.4329 145.253 74.2328 145.434C72.3279 145.59 72.1276 145.98 72.003 147.818C76.8653 147.818 81.8738 147.716 86.6524 148.745C89.7635 149.415 93.192 151.41 94.7504 147.814C94.4255 147.846 94.1012 147.877 93.7763 147.909ZM90.7364 140.127C89.5308 141.045 86.2439 139.518 84.7988 139.365C83.2296 139.199 81.7532 139.027 80.2324 138.636C78.884 138.289 74.4228 136.556 73.3884 138.213C71.8028 140.752 78.2234 141.218 79.2413 141.344C83.5101 141.872 87.9394 142.339 92.0933 143.459C91.641 142.348 91.1887 141.238 90.7364 140.127ZM84.8807 131.502C84.5689 132.676 74.915 128.35 74.7392 131.494C74.6037 133.906 84.2907 135.107 86.0323 134.896C85.6244 133.785 84.5393 132.791 84.8807 131.502ZM81.6394 124.124C81.434 121.757 81.1165 121.77 79.2179 121.547C77.7699 121.377 75.7797 120.528 76.1564 123.109C76.479 125.319 81.8459 126.513 81.6394 124.124ZM78.1887 115.979C77.7318 114.708 76.7037 116.418 76.6821 117.065C76.6247 118.785 77.9287 118.413 79.1838 118.413C78.8344 117.609 78.5022 116.797 78.1887 115.979ZM62.2995 106.438C62.5556 106.129 63.9928 106.012 64.4018 105.862C65.4077 105.493 65.2649 104.708 66.5519 105.482C66.6162 105.418 66.4939 104.835 66.5639 104.808C66.5991 104.795 67.5009 104.454 67.7939 104.267C68.5011 103.814 69.1384 103.371 69.7881 102.802C70.4788 102.198 71.1707 101.322 71.9598 100.842C72.2926 100.639 72.5646 100.352 72.9657 100.29C74.0063 100.129 73.7082 100.854 74.618 100.998C75.1784 101.087 75.5863 100.432 76.3191 100.715C76.9524 100.958 77.3199 101.846 77.6021 102.375C78.6279 104.298 79.4193 106.369 80.4235 108.313C85.5589 118.254 91.3958 127.818 96.3702 137.853C98.766 142.686 101.266 147.554 102.952 152.691C104.168 156.396 106.914 161.808 104.552 165.51C102.834 168.202 99.3947 169.365 96.6507 170.665C92.5218 172.622 88.7155 175.18 84.5411 177.078C79.5633 179.341 74.7295 181.707 69.8774 184.234C67.8081 185.312 65.9408 186.864 63.8784 187.885C62.617 188.509 60.6689 187.444 60.2581 188.875C58.677 186.959 56.1179 188.236 54.2887 186.888C53.2128 186.095 52.4265 184.532 51.5293 183.555C50.1831 182.091 48.722 180.732 47.3486 179.293C41.8974 173.578 36.8639 167.626 31.9043 161.487C27.1672 155.625 21.633 150.087 17.6316 143.671C16.0425 141.123 15.7546 138.452 16.8032 135.638C17.569 133.585 19.4135 130.486 22.0484 131.845C21.0493 130.186 24.9034 128.414 26.0726 128.09C26.0902 128.085 26.3206 129.36 26.6467 129.328C26.5306 129.339 27.6264 126.504 28.1077 126.141C29.5369 125.059 31.2757 123.797 32.8352 122.907C34.2655 122.09 35.7749 121.686 37.1603 120.772C38.8399 119.665 40.3818 118.352 42.0676 117.252C43.6953 116.19 45.5097 114.935 47.3088 114.205C48.8688 113.572 50.2696 113.448 51.6732 112.41C53.4097 111.126 54.9242 110.255 56.9269 109.37C58.6594 108.605 61.0604 107.936 62.2995 106.438Z" fill="white" fill-opacity="0.8"/>
<path fill-rule="evenodd" clip-rule="evenodd" d="M298.787 260.194C298.469 259.446 298.151 258.697 297.833 257.95C297.439 259.254 297.329 259.902 298.787 260.194ZM298.364 263.65C299.054 263.773 298.782 261.608 298.782 261.231C297.59 261.906 298.577 262.715 298.364 263.65ZM299.439 257.404C298.851 257.056 298.263 256.709 297.675 256.362C298.494 257.88 298.172 256.931 297.834 257.945C298.452 258.123 299.053 257.916 299.439 257.404ZM302.926 269.268C305.131 277.269 312.136 283.579 319.534 286.848C323.785 288.726 327.964 289.196 332.555 288.986C334.326 288.905 336.409 288.33 338.113 288.437C339.425 288.52 339.366 288.577 340.453 289.687C340.934 288.802 340.586 288.181 341.55 287.665C342.753 287.022 343.253 287.771 343.85 288.661C344.631 287.852 344.951 287.429 345.963 286.948C345.931 286.964 346.932 286.925 346.891 286.938C347.072 286.882 348.16 286.182 348.501 286.055C349.899 285.53 351.516 285.315 352.807 284.562C353.935 283.905 354.865 282.06 356.157 283.478C356.158 281.108 359.349 280.126 360.845 278.885C363.182 276.946 365.04 274.075 366.206 271.298C367.448 268.337 367.863 265.497 368.444 262.446C368.851 260.313 371.511 257.231 369.913 255.079C369.533 255.981 369.711 256.905 369.079 257.723C368.51 256.627 368.197 255.4 367.94 254.2C367.814 253.613 367.082 251.888 367.165 251.376C367.334 250.327 368.632 250.271 367.912 248.986C366.421 250.609 365.217 247.759 366.344 246.622C366.9 247.25 367.104 247.963 367.361 248.74C368.828 245.779 364.768 246.733 365.656 244.06C364.175 243.775 363.323 243.402 362.76 241.938C362.134 240.309 362.594 239.954 361.172 238.877C360.683 238.507 359.299 237.976 359.046 237.367C358.556 236.191 359.803 235.842 358.711 234.74C358.342 235.387 356.905 236.667 356.118 235.449C355.96 235.206 356.622 235.033 356.141 234.474C355.428 233.645 354.63 232.833 353.425 233.007C354.379 230.62 348.279 230.431 346.717 229.868C345.151 229.304 343.822 228.934 342.162 228.803C340.504 228.672 340.421 228.186 339.017 227.188C338.898 228.616 338.554 228.302 337.539 228.554C337.295 228.135 337.044 228.088 336.788 228.413C336.533 228.655 336.222 228.769 335.854 228.756C335.297 228.785 334.664 228.712 334.08 228.724C332.708 228.75 331.293 228.636 329.947 228.665C329.6 228.607 329.276 228.487 328.972 228.303C328.845 228.542 328.718 228.781 328.591 229.021C327.879 229.11 327.823 230.003 326.947 229.026C326.687 230.268 325.942 229.622 325.154 229.959C324.436 230.267 324.322 230.758 323.659 231.101C323.223 231.455 322.756 231.501 322.257 231.243C321.782 231.595 321.299 231.937 320.81 232.268C319.908 232.778 318.845 233.089 317.895 233.492C317.263 233.752 316.635 234.024 316.012 234.305C315.993 235.057 315.656 235.322 315 235.101C314.408 235.597 314.241 235.577 313.667 236.421C312.365 238.333 311.21 239.819 309.566 241.528C302.419 248.959 300.223 259.464 302.926 269.268ZM300.733 237.672C303.959 233.351 308.526 228.403 312.63 225.675C314.71 224.291 317.63 221.808 320.174 221.076C320.777 220.902 321.401 220.891 321.994 220.709C322.452 220.568 322.701 220.098 323.223 220.014C323.589 219.954 323.629 220.772 324.017 220.697C324.828 220.539 325.343 219.734 325.916 219.23C327.146 221.351 327.814 217.784 329.621 220.182C331.772 216.81 336.824 217.547 340.258 217.717C341.277 217.767 341.755 218.13 342.658 218.398C343.499 218.648 343.582 218.584 344.499 218.577C346.785 218.559 348.814 218.847 350.926 219.85C354.475 221.536 357.733 224.163 361.104 226.195C364.872 228.465 368.268 231.356 371.15 234.677C381.57 246.685 384.356 264.213 376.048 278.134C362.851 300.244 328.81 302.607 309.521 287.605C294.618 276.013 288.947 253.451 300.733 237.672Z" fill="white" fill-opacity="0.8"/>
<path fill-rule="evenodd" clip-rule="evenodd" d="M137.393 175.452C137.764 176.336 141.222 176.039 141.298 174.997C141.411 173.44 136.75 173.917 137.393 175.452ZM133.72 174.874C131.76 175.034 128.539 176.365 126.65 175.561C123.768 174.333 126.795 172.448 128.341 171.885C129.915 171.312 132.259 171.617 133.068 169.971C133.677 168.734 132.173 165.279 134.039 165.834C135.997 166.417 135.428 171.366 138.501 169.698C139.966 168.902 139.368 164.053 141.823 166.53C142.495 167.208 142.554 168.452 143.444 168.957C144.352 169.473 145.491 168.936 146.449 168.981C148.988 169.1 149.796 171.474 147.224 172.415C146.272 172.764 142.685 173.19 144.858 174.745C146.228 175.725 149.27 173.669 150.446 175.375C152.062 177.718 147.732 177.77 146.569 178.471C144.599 179.658 146.226 182.431 146.069 184.405C145.829 187.422 144.076 186.791 143.44 184.238C142.9 182.072 143.569 178.954 140.304 179.815C134.986 181.217 143.26 187.968 139.365 189.695C136.882 190.797 136.53 184.843 136.337 183.817C135.623 180.033 133.498 180.916 130.277 181.032C126.516 181.168 125.608 178.385 129.591 177.588C130.862 177.333 132.611 177.655 133.715 176.845C134.368 176.367 135.265 174.749 133.72 174.874Z" fill="white" fill-opacity="0.8"/>
<path fill-rule="evenodd" clip-rule="evenodd" d="M272.615 298.505C275.66 297.415 280.753 297.65 281.506 301.582C281.822 303.228 281.208 304.969 280.071 306.165C278.753 307.552 276.653 307.68 276.765 305.266C276.843 303.595 278.434 302.143 275.638 301.806C273.898 301.597 271.324 302.898 271.238 304.82C271.042 309.152 278.541 309.492 281.305 308.742C286.789 307.256 285.299 301.512 281.533 298.89C280.56 298.212 277.768 297.169 277.64 295.762C277.471 293.896 279.779 294.277 280.91 294.523C289.224 296.332 291.036 310.26 282.349 312.886C278.403 314.078 272.848 312.847 270.47 309.274C268.241 305.924 268.211 300.082 272.615 298.505Z" fill="white" fill-opacity="0.8"/>
<path fill-rule="evenodd" clip-rule="evenodd" d="M382.852 199.907C385.451 201.158 388.05 202.41 390.648 203.661C391.507 201.822 392.959 196.8 395.138 196.159C398.665 195.121 396.419 200.595 395.81 201.847C395.31 202.875 394.15 204.468 394.432 205.694C394.809 207.345 397.139 207.93 398.358 208.781C401.375 210.89 401.351 215.318 396.982 213.442C394.509 212.379 391.447 209.434 389.552 212.778C388.677 214.321 386.604 222.942 384.439 217.304C383.099 213.814 389.548 210.187 386.368 207.234C385.345 206.284 384.147 206.204 383.124 205.658C380.655 204.338 382.047 201.9 382.852 199.907Z" fill="white" fill-opacity="0.8"/>
<path fill-rule="evenodd" clip-rule="evenodd" d="M1.83239 74.999C3.38165 74.4323 5.29846 73.3257 7.02068 73.7029C8.85101 74.1035 9.58781 75.9366 10.9186 77.0387C14.5366 80.0354 16.6439 75.5691 18.6319 73.1215C20.5094 70.8104 22.8 70.2494 25.4491 71.6695C26.5045 72.2356 30.9508 74.8294 30.1754 76.4914C29.6178 77.6873 27.4211 76.6137 26.6718 76.3525C25.0451 75.7864 23.5346 75.2909 21.8709 76.1164C18.7502 77.664 17.9406 81.9078 14.165 82.5695C10.2609 83.2539 10.1329 79.5387 7.34669 78.1402C5.47882 77.2031 4.17762 78.8622 2.37575 78.5316C0.658646 78.217 -0.135622 75.7182 1.83239 74.999Z" fill="white" fill-opacity="0.8"/>
<path fill-rule="evenodd" clip-rule="evenodd" d="M33.3526 89.9726C31.9717 90.2724 31.0705 87.5944 30.2062 86.915C28.7725 85.7891 26.2867 85.562 24.8268 86.6954C21.9758 88.9075 22.9584 93.6833 18.8989 94.9282C15.2707 96.041 13.5615 91.2624 10.5074 90.0727C8.73168 89.3809 6.78246 88.928 7.47544 86.4456C7.95393 84.7291 9.3638 84.2882 10.8966 84.9476C13.5308 86.0798 14.4252 90.6923 17.5482 90.7748C20.7793 90.8601 21.1297 86.2021 22.5168 84.1732C24.6316 81.081 28.979 80.3339 31.4494 83.2908C32.1953 84.1829 35.9823 89.403 33.3526 89.9726Z" fill="white" fill-opacity="0.8"/>
<path fill-rule="evenodd" clip-rule="evenodd" d="M97.2197 37.168C95.2989 38.4823 91.471 38.4367 89.7016 36.8067C87.9008 35.1482 90.3047 34.8933 91.7714 34.9439C92.8997 34.9832 95.0116 35.5425 94.3687 33.5938C93.798 31.8648 90.6614 32.7449 90.3997 30.8469C92.7603 30.4236 95.3604 30.5761 97.1065 32.4314C98.369 33.7725 99.0176 35.9373 97.2197 37.168Z" fill="white" fill-opacity="0.8"/>
</svg>
